<?xml version="1.0" encoding="UTF-8" standalone="no"?>
<!-- Created with Inkscape (http://www.inkscape.org/) -->

<svg
   width="720"
   height="720"
   viewBox="0 0 720 720"
   version="1.1"
   id="svg1"
   sodipodi:docname="720x720_gray__thing_v0.0.13.svg"
   inkscape:version="1.3 (0e150ed6c4, 2023-07-21)"
   xmlns:inkscape="http://www.inkscape.org/namespaces/inkscape"
   xmlns:sodipodi="http://sodipodi.sourceforge.net/DTD/sodipodi-0.dtd"
   xmlns="http://www.w3.org/2000/svg"
   xmlns:svg="http://www.w3.org/2000/svg">
  <sodipodi:namedview
     id="namedview1"
     pagecolor="#505050"
     bordercolor="#ffffff"
     borderopacity="1"
     inkscape:showpageshadow="0"
     inkscape:pageopacity="0"
     inkscape:pagecheckerboard="1"
     inkscape:deskcolor="#505050"
     inkscape:document-units="px"
     inkscape:zoom="0.77792113"
     inkscape:cx="351.57806"
     inkscape:cy="360.5764"
     inkscape:window-width="1568"
     inkscape:window-height="867"
     inkscape:window-x="25"
     inkscape:window-y="61"
     inkscape:window-maximized="0"
     inkscape:current-layer="layer1" />
  <defs
     id="defs1" />
  <g
     inkscape:label="background"
     inkscape:groupmode="layer"
     id="layer1"
     style="display:inline">
    <rect
       style="fill:#979797;fill-opacity:1;stroke:none;stroke-opacity:1"
       id="background1"
       width="720"
       height="720"
       x="-720"
       y="0"
       transform="scale(-1,1)"
       inkscape:label="background1" />
  </g>
  <g
     inkscape:groupmode="layer"
     id="layer2"
     inkscape:label="shapes"
     style="display:inline">
    <path
       style="display:inline;fill:#808080;fill-opacity:1;stroke-width:1.11308"
       d="M 613.24707,90.483909 718.18978,422.68943 496.99901,635.87387 573.29933,173.08695 Z"
       id="path1" />
    <path
       style="display:inline;fill:#b3b3b3;fill-opacity:1;stroke-width:1.11308"
       d="M 531.40001,81.523449 636.34274,413.72896 415.15197,626.9134 436.33252,532.22714 558.63564,407.28963 491.45227,164.12649 Z"
       id="path1-5-2"
       sodipodi:nodetypes="ccccccc" />
    <path
       style="display:inline;fill:#4d4d4d;fill-opacity:1;stroke-width:1.11308"
       d="M 582.854,92.333502 687.79673,424.53901 466.60596,637.72345 485.82568,521.1494 c 0,0 103.98044,-64.29914 93.57101,-105.35245 -10.40943,-41.05332 -43.3773,-199.08923 -36.49043,-240.86042 6.88687,-41.7712 39.94774,-82.603028 39.94774,-82.603028 z"
       id="path1-5"
       sodipodi:nodetypes="cccczzc" />
    <path
       style="display:inline;fill:#cccccc;fill-opacity:1;stroke-width:0.991711"
       d="M 434.13392,72.989727 477.84964,420.65449 280.85112,594.49691 220.07403,110.85624 Z"
       id="path1-5-2-7-6-6"
       sodipodi:nodetypes="ccccc" />
    <path
       style="display:inline;fill:#b3b3b3;fill-opacity:1"
       d="M 328.90021,38.948547 372.61593,392.44947 175.61741,569.21014 114.84032,77.450716 Z"
       id="path1-5-2-7"
       sodipodi:nodetypes="ccccc" />
    <path
       style="display:inline;fill:#b3b3b3;fill-opacity:1;stroke-width:0.49409"
       d="m 267.41491,434.45241 24.00887,199.1062 -97.33499,87.33567 -32.43872,-267.41833 z"
       id="path1-5-2-7-8"
       sodipodi:nodetypes="ccccc" />
    <path
       style="display:inline;fill:#b3b3b3;fill-opacity:1;stroke-width:0.466552"
       d="m 379.04287,323.39729 19.25891,174.66126 -86.78745,87.33567 -26.77527,-242.97339 z"
       id="path1-5-2-7-8-1"
       sodipodi:nodetypes="ccccc" />
    <g
       id="g1"
       transform="translate(28.159243,12.594838)">
      <path
         style="display:inline;fill:#666666;fill-opacity:1"
         d="M 360.68377,51.308662 404.39949,404.80958 207.40097,581.57025 146.62388,89.810831 Z"
         id="path1-5-2-7-6"
         sodipodi:nodetypes="ccccc" />
    </g>
    <path
       style="display:inline;fill:#999999;fill-opacity:1;stroke-width:0.68314"
       d="M 361.87693,109.03385 391.74087,350.52432 257.16338,471.27653 215.64415,135.3362 Z"
       id="path1-5-2-7-6-9"
       sodipodi:nodetypes="ccccc" />
    <path
       style="display:inline;fill:#b3b3b3;fill-opacity:1;stroke-width:0.50656"
       d="M 346.23034,132.37545 368.37497,311.4449 268.58339,400.98479 237.79615,151.8791 Z"
       id="path1-5-2-7-6-9-7"
       sodipodi:nodetypes="ccccc" />
  </g>
</svg>
